<svg id="visual" viewBox="0 0 540 960" width="540" height="960" xmlns="http://www.w3.org/2000/svg" xmlns:xlink="http://www.w3.org/1999/xlink" version="1.1"><path d="M0 49L540 11L540 0L0 0Z" fill="#00cc8e"></path><path d="M0 107L540 59L540 9L0 47Z" fill="#00cca3"></path><path d="M0 500L540 462L540 57L0 105Z" fill="#00cab6"></path><path d="M0 558L540 462L540 460L0 498Z" fill="#00c9c6"></path><path d="M0 615L540 519L540 460L0 556Z" fill="#00c6d3"></path><path d="M0 731L540 558L540 517L0 613Z" fill="#00c3dc"></path><path d="M0 740L540 558L540 556L0 729Z" fill="#00bfe2"></path><path d="M0 759L540 625L540 556L0 738Z" fill="#00bbe9"></path><path d="M0 827L540 702L540 623L0 757Z" fill="#00b7ef"></path><path d="M0 836L540 827L540 700L0 825Z" fill="#00b2f4"></path><path d="M0 932L540 951L540 825L0 834Z" fill="#00adf7"></path><path d="M0 961L540 961L540 949L0 930Z" fill="#27a7fa"></path></svg>