<svg id="visual" viewBox="0 0 540 960" width="540" height="960" xmlns="http://www.w3.org/2000/svg" xmlns:xlink="http://www.w3.org/1999/xlink" version="1.1"><rect x="0" y="0" width="540" height="960" fill="#fff"></rect><defs><linearGradient id="grad1_0" x1="0%" y1="0%" x2="100%" y2="100%"><stop offset="30%" stop-color="#25a5ec" stop-opacity="1"></stop><stop offset="70%" stop-color="#25a5ec" stop-opacity="1"></stop></linearGradient></defs><defs><linearGradient id="grad1_1" x1="0%" y1="0%" x2="100%" y2="100%"><stop offset="30%" stop-color="#25a5ec" stop-opacity="1"></stop><stop offset="70%" stop-color="#aad1f6" stop-opacity="1"></stop></linearGradient></defs><defs><linearGradient id="grad1_2" x1="0%" y1="0%" x2="100%" y2="100%"><stop offset="30%" stop-color="#ffffff" stop-opacity="1"></stop><stop offset="70%" stop-color="#aad1f6" stop-opacity="1"></stop></linearGradient></defs><defs><linearGradient id="grad2_0" x1="0%" y1="0%" x2="100%" y2="100%"><stop offset="30%" stop-color="#25a5ec" stop-opacity="1"></stop><stop offset="70%" stop-color="#25a5ec" stop-opacity="1"></stop></linearGradient></defs><defs><linearGradient id="grad2_1" x1="0%" y1="0%" x2="100%" y2="100%"><stop offset="30%" stop-color="#aad1f6" stop-opacity="1"></stop><stop offset="70%" stop-color="#25a5ec" stop-opacity="1"></stop></linearGradient></defs><defs><linearGradient id="grad2_2" x1="0%" y1="0%" x2="100%" y2="100%"><stop offset="30%" stop-color="#aad1f6" stop-opacity="1"></stop><stop offset="70%" stop-color="#ffffff" stop-opacity="1"></stop></linearGradient></defs><g transform="translate(540, 0)"><path d="M0 486C-46.5 440.8 -93.1 395.7 -157.3 379.7C-221.5 363.8 -303.4 377 -343.7 343.7C-383.9 310.3 -382.3 230.4 -399.1 165.3C-415.9 100.3 -450.9 50.1 -486 0L0 0Z" fill="#d6e8fb"></path><path d="M0 324C-31 293.9 -62 263.8 -104.9 253.1C-147.7 242.5 -202.3 251.3 -229.1 229.1C-255.9 206.9 -254.9 153.6 -266.1 110.2C-277.3 66.9 -300.6 33.4 -324 0L0 0Z" fill="#77bbf1"></path><path d="M0 162C-15.5 146.9 -31 131.9 -52.4 126.6C-73.8 121.3 -101.1 125.7 -114.6 114.6C-128 103.4 -127.4 76.8 -133 55.1C-138.6 33.4 -150.3 16.7 -162 0L0 0Z" fill="#25a5ec"></path></g><g transform="translate(0, 960)"><path d="M0 -486C67.3 -481.2 134.6 -476.3 184.5 -445.3C234.3 -414.3 266.7 -357.1 312.5 -312.5C358.4 -268 417.8 -236 449 -186C480.2 -136 483.1 -68 486 0L0 0Z" fill="#d6e8fb"></path><path d="M0 -324C44.9 -320.8 89.7 -317.5 123 -296.9C156.2 -276.2 177.8 -238.1 208.4 -208.4C239 -178.6 278.6 -157.3 299.3 -124C320.1 -90.7 322.1 -45.3 324 0L0 0Z" fill="#77bbf1"></path><path d="M0 -162C22.4 -160.4 44.9 -158.8 61.5 -148.4C78.1 -138.1 88.9 -119 104.2 -104.2C119.5 -89.3 139.3 -78.7 149.7 -62C160.1 -45.3 161 -22.7 162 0L0 0Z" fill="#25a5ec"></path></g></svg>