<svg width="375" height="812" viewBox="0 0 375 812" fill="none" xmlns="http://www.w3.org/2000/svg">
<path d="M0 474C46.7361 477.333 93.4722 480.736 128.125 502.264C162.708 523.792 185.208 563.514 217.014 594.486C248.889 625.389 290.139 647.611 311.806 682.333C333.472 717.056 335.486 764.278 337.5 811.5H0V474Z" fill="#D6E8FB"/>
<path d="M0 586.5C31.1806 588.722 62.2917 591.014 85.4167 605.319C108.472 619.694 123.472 646.153 144.722 666.778C165.972 687.472 193.472 702.264 207.847 725.389C222.292 748.514 223.681 780.042 225 811.5H0V586.5Z" fill="#77BBF1"/>
<path d="M0 699C15.5556 700.111 31.1806 701.222 42.7083 708.444C54.2361 715.597 61.7361 728.861 72.3611 739.139C82.9861 749.486 96.7361 756.847 103.958 768.444C111.181 780.042 111.806 795.736 112.5 811.5H0V699Z" fill="#25A5EC"/>
<path d="M375.5 237.5C352.776 215.412 330.004 193.372 298.63 185.553C267.257 177.783 227.234 184.234 207.54 167.96C187.895 151.638 188.676 112.593 180.467 80.7793C172.257 49.0149 155.153 24.483 138 0H375.5V237.5Z" fill="#D6E8FB"/>
<path d="M375.5 158.333C360.351 143.624 345.202 128.915 324.237 123.686C303.322 118.506 276.639 122.806 263.543 111.957C250.446 101.109 250.935 75.0617 245.461 53.8529C239.988 32.6929 228.602 16.322 217.167 0H375.5V158.333Z" fill="#77BBF1"/>
<path d="M375.5 79.1667C367.925 71.7876 360.351 64.4573 349.893 61.8673C339.435 59.2773 326.094 61.4275 319.497 56.0031C312.949 50.5298 313.242 37.5309 310.505 26.9264C307.768 16.322 302.051 8.16101 296.333 0H375.5V79.1667Z" fill="#25A5EC"/>
</svg>
